# xmcd
#
# Track frame offsets:
#	150
#	15199
#	30136
#	46385
#	59697
#	72683
#	83078
#	96691
#	108786
#	122418
#	138531
#	153922
#	166169
#	180619
#	200053
#	216281
#
# Disc length: 3053 seconds
#
# Revision: 0
# Processed by: cddbd v1.5.2PL0 Copyright (c) Steve Scherf et al.
# Submitted via: EasyCDDAExtractor 16.0.6.1
#
DISCID=d90beb10
DTITLE=Μητσιάς Μανώλης - Τα τραγούδια μου-Μ. Μητσιάς 2
DYEAR=2010
DGENRE=Ποικίλη
TTITLE0=Ποτέ [Στ. Κραουνάκης-Λ. Νικολακοπούλου]
TTITLE1=Επέτειος [Στ. Κραουνάκης-Λ. Νικολακοπούλου]
TTITLE2=Σού 'χω έτοιμη συγγνώμη [Θ. Δερβενιώτης-Κ. Βίρβος]
TTITLE3=Βίος ανθόσπαρτος [Μάριος Τόκας-Φίλ. Γράψας]
TTITLE4=Αλήτης [Μάριος Τόκας]
TTITLE5=Φωνάζουν οι γειτόνοι [Μάριος Τόκας]
TTITLE6=Άλλη στράτα (Νεκρό χελιδόνι)[Μάριος Τόκας]
TTITLE7=Ντελάλης [Μάριος Τόκας]
TTITLE8=Ο τρελλός [Άκης Πάνου]
TTITLE9=Γιατί κουράστηκα πολύ [Γ. Σπανός-Λ. Παπαδόπουλος]
TTITLE10=Επειδή σ' αγαπώ [Γ. Σπανός-Λ. Παπαδόπουλος]
TTITLE11=Πού νά 'βρω ένα ζεϊμπέκικο [Γ. Σπανός-Λ. Παπαδόπουλος]
TTITLE12=Στου καιρού τα ρέματα [Γ. Σπανός-Λ. Παπαδόπουλος]
TTITLE13=1922 (Ανατολή, Ανατολή)[Δ. Μούτσης-Ν. Γκάτσος]
TTITLE14=Σαν τον Τσε Γκεβάρα [Δ. Μούτσης-Ν. Γκάτσος]
TTITLE15=Κορίτσι με τα παντελόνια [Λ. Κόκοτος-Λ. Παπαδόπουλος]
EXTD=
EXTT0=
EXTT1=
EXTT2=
EXTT3=
EXTT4=
EXTT5=
EXTT6=
EXTT7=
EXTT8=
EXTT9=
EXTT10=
EXTT11=
EXTT12=
EXTT13=
EXTT14=
EXTT15=
PLAYORDER=
